<?xml version="1.0" standalone="no"?>
<!DOCTYPE svg PUBLIC "-//W3C//DTD SVG 20010904//EN"
 "http://www.w3.org/TR/2001/REC-SVG-20010904/DTD/svg10.dtd">
<svg version="1.0" xmlns="http://www.w3.org/2000/svg"
 width="230.000000pt" height="219.000000pt" viewBox="0 0 230.000000 219.000000"
 preserveAspectRatio="xMidYMid meet">

<g transform="translate(0.000000,219.000000) scale(0.100000,-0.100000)"
fill="#000000" stroke="none">
<path d="M950 2131 c-326 -70 -608 -302 -740 -609 -45 -104 -65 -184 -82 -315
-26 -211 42 -474 175 -672 57 -84 187 -216 273 -275 200 -138 467 -209 686
-181 266 33 476 136 651 321 195 204 287 434 287 715 0 291 -94 517 -300 726
-159 160 -315 247 -525 290 -118 25 -308 24 -425 0z m381 -26 c375 -65 678
-329 792 -690 149 -473 -70 -981 -518 -1200 -141 -69 -246 -96 -400 -102 -151
-6 -272 13 -405 65 -300 118 -525 372 -612 691 -32 114 -32 372 0 491 32 120
118 289 196 387 107 134 289 263 451 318 154 53 340 68 496 40z"/>
<path d="M1153 2070 c-6 -21 -11 -23 -55 -20 -14 1 -29 -3 -33 -9 -4 -7 6 -11
27 -11 32 0 33 -1 9 -13 -31 -16 -32 -29 -3 -42 12 -5 23 -14 23 -20 1 -5 4 3
8 19 3 16 12 31 20 34 11 4 12 -2 7 -24 -6 -27 -5 -28 9 -10 17 22 12 34 -19
46 l-21 9 22 0 c12 1 28 4 37 7 13 5 16 -3 18 -42 1 -48 1 -48 5 -9 3 22 9 43
15 46 7 5 0 17 -18 33 -35 31 -44 32 -51 6z m32 -10 c3 -5 -1 -10 -9 -10 -9 0
-16 5 -16 10 0 6 4 10 9 10 6 0 13 -4 16 -10z m-65 -65 c0 -8 -7 -15 -15 -15
-8 0 -15 7 -15 15 0 8 7 15 15 15 8 0 15 -7 15 -15z"/>
<path d="M927 2053 c-4 -3 -7 -15 -7 -25 0 -23 -27 -24 -52 -1 -10 9 -18 11
-18 5 0 -6 8 -15 18 -21 19 -10 21 -9 -70 -42 -21 -7 -38 -16 -38 -21 0 -4 7
-4 17 -1 11 4 14 3 9 -5 -10 -17 16 -52 41 -52 12 0 24 6 26 13 4 9 8 8 16 -3
16 -22 14 4 -3 45 -14 33 -14 35 4 35 12 0 21 -10 25 -30 4 -16 11 -33 17 -37
8 -4 9 0 4 13 -18 46 -19 74 -3 74 10 0 20 -15 27 -40 6 -22 13 -40 17 -40 6
0 -1 44 -12 71 -4 12 1 18 20 21 21 5 25 2 23 -15 -2 -11 3 -22 11 -25 10 -3
12 2 7 22 -5 19 -2 26 7 26 8 0 19 -18 25 -42 l11 -43 -2 50 c-2 48 -4 51 -37
62 -39 14 -73 17 -83 6z m62 -12 c10 -6 5 -11 -18 -16 -35 -7 -47 -3 -36 14 8
13 35 14 54 2z m-140 -88 c12 -22 -3 -53 -26 -53 -13 0 -14 2 -2 17 12 15 12
16 -3 10 -10 -3 -18 -2 -18 3 0 6 5 10 10 10 6 0 10 7 10 15 0 20 17 19 29 -2z"/>
<path d="M1314 2031 c4 -6 14 -11 22 -11 8 0 14 -7 14 -16 0 -10 -6 -14 -15
-10 -18 6 -18 7 -4 -33 6 -17 15 -31 20 -31 6 0 6 6 1 16 -6 10 -5 25 2 40 12
26 36 32 36 9 0 -8 -4 -15 -8 -15 -5 0 -6 -15 -3 -32 l5 -33 11 40 c7 22 17
40 23 39 7 -1 19 -2 27 -2 8 -1 15 -9 15 -17 0 -18 -16 -20 -24 -2 -4 6 -4 -4
-1 -23 3 -19 10 -39 17 -45 8 -7 9 -5 4 8 -15 43 28 43 45 1 5 -14 17 -24 29
-24 14 0 20 -7 20 -22 1 -19 4 -16 21 15 11 20 26 37 34 37 13 0 12 -7 -5 -40
-11 -22 -16 -40 -11 -40 5 0 14 14 21 30 7 17 17 30 22 30 19 0 68 -35 68 -48
0 -12 -5 -11 -25 2 -30 20 -35 20 -35 0 0 -10 5 -14 15 -10 20 7 32 -21 16
-37 -6 -6 -11 -15 -11 -21 0 -5 16 7 35 28 l35 39 -22 16 c-32 23 -128 81
-134 81 -3 0 -2 -5 1 -10 4 -6 1 -17 -5 -25 -14 -17 -50 -20 -50 -5 0 6 7 10
16 10 10 0 14 7 12 22 -4 28 -38 38 -37 11 0 -10 3 -13 6 -5 5 13 23 7 23 -9
0 -14 -32 -10 -54 6 -15 12 -17 17 -7 29 11 13 2 18 -61 36 -113 34 -111 33
-104 21z"/>
<path d="M690 1963 c0 -3 8 -11 17 -18 15 -11 11 -16 -33 -44 -27 -17 -42 -31
-34 -31 8 0 24 -14 35 -30 18 -28 21 -29 33 -13 11 16 14 16 22 3 9 -13 10
-13 10 0 0 8 -9 26 -20 40 -24 30 -24 36 -5 44 11 4 21 -5 32 -29 9 -19 20
-35 25 -35 5 0 0 17 -11 39 -11 21 -18 40 -16 42 2 3 -10 12 -26 21 -16 9 -29
14 -29 11z m9 -87 c9 -10 9 -16 1 -21 -13 -8 -42 14 -34 26 8 13 20 11 33 -5z"/>
<path d="M688 1933 c7 -3 16 -2 19 1 4 3 -2 6 -13 5 -11 0 -14 -3 -6 -6z"/>
<path d="M980 1860 c-212 -55 -396 -206 -495 -405 -54 -111 -74 -183 -82 -300
-20 -309 148 -604 423 -743 118 -59 195 -77 339 -76 90 0 149 5 191 17 274 76
476 281 555 562 9 33 14 101 14 200 -1 137 -3 157 -29 230 -52 151 -141 281
-254 371 -75 59 -219 128 -309 148 -99 22 -258 20 -353 -4z m357 -25 c176 -41
348 -164 448 -319 82 -129 133 -324 120 -460 -29 -285 -181 -507 -430 -627
-112 -54 -204 -72 -340 -66 -343 15 -614 248 -691 594 -23 105 -15 268 19 375
119 374 494 590 874 503z"/>
<path d="M1124 1775 c-7 -19 -14 -44 -14 -55 0 -37 -34 -23 -59 25 -17 32 -30
45 -45 45 -38 0 -50 -16 -50 -67 -1 -66 -18 -74 -63 -29 -40 39 -50 43 -77 23
-14 -10 -17 -23 -14 -53 3 -21 8 -46 12 -55 12 -28 -22 -30 -60 -4 -44 30 -56
31 -77 7 -22 -25 -21 -44 4 -87 27 -46 16 -63 -32 -46 -47 16 -77 14 -89 -8
-16 -31 -12 -41 25 -77 47 -44 39 -60 -30 -60 -61 0 -61 1 -70 -36 -6 -25 -2
-30 39 -55 58 -36 60 -58 6 -66 -52 -7 -70 -22 -70 -58 0 -25 5 -30 42 -40 24
-6 49 -13 56 -15 25 -7 11 -30 -33 -53 -37 -19 -45 -29 -45 -51 0 -39 22 -53
75 -48 60 4 67 -15 20 -60 -37 -36 -42 -51 -24 -83 8 -16 16 -19 47 -13 20 4
44 10 53 15 11 6 21 4 29 -6 9 -11 8 -20 -8 -42 -28 -40 -36 -71 -22 -88 17
-21 46 -19 91 7 48 27 70 15 51 -27 -18 -40 -15 -83 7 -95 30 -15 37 -13 76
26 46 46 62 40 64 -26 1 -62 3 -66 37 -73 23 -4 30 2 57 44 16 27 36 49 42 49
7 0 18 -22 25 -50 14 -58 30 -75 65 -66 18 5 27 16 35 49 16 62 18 67 29 67 6
0 19 -17 30 -38 27 -53 41 -63 77 -53 27 7 29 11 34 66 6 65 21 79 45 41 9
-13 28 -32 41 -41 23 -15 27 -15 50 0 27 17 30 44 13 95 -16 46 4 56 50 24 43
-29 62 -30 84 -6 22 25 22 33 -9 77 -21 31 -23 40 -12 51 11 11 21 11 57 -2
52 -18 67 -14 83 21 10 23 8 29 -27 65 -41 42 -44 77 -4 65 39 -13 89 4 100
33 9 23 7 30 -13 46 -13 10 -36 23 -51 28 -39 14 -31 41 13 48 55 10 76 25 75
55 -2 31 -23 46 -75 55 -51 8 -48 31 7 60 42 22 48 29 46 54 -3 37 -17 46 -75
46 -26 0 -49 4 -53 10 -3 5 13 28 35 50 40 40 40 41 25 71 -15 27 -19 29 -53
23 -20 -4 -45 -11 -54 -15 -23 -12 -25 -11 -32 7 -3 8 5 32 19 52 28 41 31 62
13 80 -18 18 -46 15 -89 -10 -50 -28 -65 -17 -50 38 16 57 14 70 -14 82 -23
10 -29 8 -65 -24 -53 -48 -70 -41 -70 30 0 51 -2 56 -25 62 -30 7 -57 -13 -75
-57 -18 -43 -47 -39 -56 9 -10 58 -21 72 -55 72 -25 0 -33 -6 -45 -35z m64 2
c6 -7 14 -32 18 -55 6 -39 9 -42 39 -42 29 0 36 5 52 38 33 67 78 51 67 -24
-6 -39 -4 -42 26 -52 29 -11 33 -9 62 23 33 38 36 39 57 26 12 -8 12 -16 -3
-55 l-18 -46 29 -24 c27 -24 29 -24 48 -7 71 64 119 33 59 -38 l-25 -30 22
-30 c21 -28 22 -29 55 -15 74 31 106 2 53 -47 -17 -16 -35 -29 -40 -29 -5 0
-3 -15 4 -32 13 -32 16 -33 68 -33 47 0 54 -2 54 -20 0 -13 -13 -27 -40 -40
-22 -11 -42 -21 -44 -22 -2 -1 -1 -17 3 -36 6 -31 10 -35 47 -40 23 -3 46 -10
52 -16 18 -18 -1 -40 -40 -46 -60 -10 -63 -12 -63 -48 0 -29 4 -35 28 -41 38
-8 66 -32 59 -51 -5 -11 -21 -15 -60 -15 -51 0 -55 -2 -67 -31 -12 -29 -11
-32 24 -60 38 -32 46 -56 21 -65 -13 -5 -36 0 -85 20 -11 4 -24 -4 -38 -24
l-23 -31 25 -30 c26 -31 34 -63 17 -73 -5 -3 -28 7 -51 23 l-43 29 -29 -21
c-15 -11 -28 -22 -28 -23 0 -1 7 -18 15 -37 19 -47 19 -63 -2 -72 -13 -5 -28
4 -53 33 -33 37 -36 38 -65 26 -28 -11 -30 -16 -30 -65 0 -48 -2 -54 -23 -57
-18 -3 -26 5 -43 43 -18 40 -24 46 -42 41 -12 -3 -28 -6 -34 -6 -7 0 -13 -11
-13 -24 0 -41 -18 -76 -39 -76 -20 0 -31 25 -31 71 0 28 -16 39 -54 39 -16 0
-28 -12 -44 -46 -16 -32 -28 -44 -40 -42 -13 3 -17 15 -18 57 -1 51 -3 54 -34
68 -30 12 -35 12 -43 -3 -44 -79 -113 -62 -73 17 12 25 13 35 4 46 -26 32 -46
34 -84 8 -42 -29 -48 -30 -63 -11 -8 10 -4 22 18 53 l30 41 -22 29 c-21 28
-24 29 -52 17 -36 -16 -72 -18 -80 -4 -8 14 14 45 47 64 26 16 27 18 14 49
-11 28 -17 32 -47 29 -50 -4 -79 6 -79 27 0 18 52 51 80 51 7 0 10 14 8 37 -3
36 -5 38 -47 45 -25 4 -49 12 -54 17 -20 20 2 40 52 47 47 6 49 8 53 41 4 32
1 35 -39 53 -31 13 -43 25 -43 39 0 19 6 21 55 21 50 0 56 2 69 29 15 28 15
30 -19 56 -35 26 -45 57 -24 70 6 4 31 -1 55 -10 25 -9 46 -16 47 -14 1 2 10
14 21 26 18 21 17 22 -9 57 -48 63 -8 102 53 51 31 -26 32 -26 57 -8 17 13 23
24 20 38 -29 102 -7 128 52 65 35 -37 38 -38 63 -25 25 13 27 18 22 63 -3 40
-1 50 13 56 23 9 52 -18 60 -56 6 -26 10 -29 43 -26 35 3 37 5 44 46 4 23 10
47 13 52 9 14 31 12 43 -3z"/>
<path d="M1047 1585 c-218 -60 -367 -256 -367 -483 0 -276 253 -512 522 -488
261 23 448 231 448 495 0 141 -44 247 -144 347 -67 67 -134 106 -223 129 -69
18 -171 18 -236 0z m204 -15 c87 -17 174 -63 238 -128 253 -252 152 -677 -187
-787 -41 -13 -78 -16 -155 -13 -89 3 -111 8 -170 35 -201 95 -313 323 -263
535 42 173 179 312 349 354 66 16 120 17 188 4z"/>
<path d="M1155 1500 c-4 -19 -26 -75 -48 -125 -37 -82 -41 -98 -41 -175 -1
-68 4 -95 22 -134 24 -54 22 -82 -9 -91 -34 -11 -58 4 -70 45 -10 33 -9 47 5
83 9 23 16 55 16 70 0 99 -126 151 -196 82 -29 -29 -31 -45 -5 -45 35 0 45
-25 27 -70 -54 -134 28 -289 171 -325 47 -12 48 -13 53 -56 l5 -44 70 0 70 0
3 43 c2 31 7 42 20 42 29 1 92 27 132 55 26 18 50 48 70 88 33 66 38 117 18
193 -12 42 -11 47 7 60 11 8 25 12 32 10 21 -9 15 19 -10 42 -56 53 -132 49
-182 -9 -27 -33 -33 -85 -14 -121 17 -32 13 -107 -7 -129 -23 -25 -60 -24 -74
1 -9 16 -6 34 14 85 41 101 35 195 -19 310 -9 18 -25 60 -34 92 l-18 58 -8
-35z m76 -238 c13 -70 0 -165 -28 -213 -32 -53 11 -110 72 -95 30 8 65 60 65
97 0 15 -7 46 -15 69 -21 60 -19 75 14 112 24 27 36 33 69 33 25 0 48 -7 60
-18 20 -18 20 -18 -5 -43 -18 -18 -23 -31 -18 -47 17 -54 17 -138 1 -181 -21
-55 -100 -130 -153 -146 -23 -7 -85 -10 -154 -8 -108 3 -119 5 -165 33 -93 58
-132 163 -103 282 12 54 12 56 -10 74 -19 16 -21 22 -11 34 19 23 74 29 108
11 55 -29 62 -62 31 -162 -7 -22 -9 -53 -5 -68 9 -36 49 -76 76 -76 28 0 74
46 67 68 -3 9 -13 37 -22 62 -27 74 -18 195 25 306 l35 92 27 -76 c16 -42 33
-105 39 -140z m-31 -502 l0 -40 -45 0 -45 0 0 40 0 40 45 0 45 0 0 -40z"/>
<path d="M1157 1338 c-4 -21 -17 -57 -27 -80 -11 -24 -20 -56 -20 -71 0 -31
38 -127 50 -127 12 0 50 95 50 124 0 14 -9 52 -19 83 -11 32 -21 69 -23 83 -3
21 -5 19 -11 -12z m17 -72 c3 -13 8 -31 12 -39 4 -10 -4 -16 -26 -19 -24 -4
-29 -1 -26 11 3 9 8 28 12 44 8 33 20 35 28 3z m4 -146 c-14 -42 -24 -45 -37
-8 -6 17 -11 33 -11 34 0 2 13 4 29 4 29 0 30 -1 19 -30z"/>
<path d="M946 1187 c3 -8 -11 -33 -31 -56 -21 -27 -35 -54 -35 -71 0 -47 60
-104 90 -85 8 5 7 12 -2 22 -9 11 -12 45 -11 110 1 53 -2 93 -7 93 -5 0 -7 -6
-4 -13z m-6 -76 c-4 -16 -6 -32 -2 -35 3 -3 -4 -6 -16 -6 -26 0 -26 2 -7 40
20 39 36 39 25 1z m17 -127 c-2 -3 -15 5 -28 16 -20 17 -22 21 -9 29 11 8 18
4 28 -15 8 -14 12 -28 9 -30z"/>
<path d="M1365 1189 c-4 -5 -4 -36 -1 -67 6 -52 1 -84 -19 -134 -12 -30 33
-22 66 11 42 43 38 92 -14 148 -11 12 -17 29 -14 37 7 18 -8 22 -18 5z m55
-116 c0 -7 -6 -12 -12 -10 -14 2 -25 29 -27 62 -1 16 3 14 19 -10 11 -16 20
-36 20 -42z m-10 -52 c0 -11 -42 -43 -48 -37 -2 3 1 14 8 25 11 21 40 29 40
12z"/>
<path d="M523 1781 c-23 -23 -53 -41 -69 -43 -25 -3 -29 -7 -27 -33 1 -16 -4
-36 -11 -45 -18 -21 -82 -133 -90 -158 -5 -13 -2 -19 6 -18 23 2 20 -19 -3
-24 -24 -6 -39 -30 -19 -30 6 0 8 5 5 10 -3 6 -2 10 4 10 5 0 13 -4 16 -10 3
-5 13 -10 21 -10 11 0 13 6 9 21 -6 19 -4 21 19 15 39 -10 32 8 -9 23 -19 7
-35 16 -35 21 0 18 21 20 51 5 17 -9 33 -14 36 -11 3 3 -11 13 -31 22 -41 20
-42 21 -17 53 12 15 23 21 31 16 10 -6 9 -11 -5 -22 -17 -12 -15 -13 23 -13
23 0 42 5 42 11 0 6 -8 8 -18 5 -12 -4 -21 2 -30 24 -11 25 -11 33 4 54 9 15
21 26 26 26 5 0 2 -10 -6 -22 -11 -16 -13 -25 -4 -35 12 -15 58 -18 58 -4 0 5
-8 7 -19 4 -24 -6 -36 13 -20 33 10 13 14 13 29 -1 9 -8 21 -15 26 -15 5 1 -7
14 -26 30 -26 23 -31 33 -22 42 9 9 17 7 34 -9 41 -36 54 -37 20 -2 -25 27
-29 38 -20 47 18 18 39 15 36 -5 -2 -14 3 -17 22 -15 14 1 33 4 43 5 22 2 22
10 -4 33 -12 10 -24 27 -28 37 -6 15 -12 12 -48 -22z m47 -6 c14 -16 5 -54 -9
-39 -14 15 -23 54 -13 54 5 0 15 -7 22 -15z m-110 -60 c-12 -15 -30 -12 -30 6
0 5 10 9 21 9 18 0 19 -2 9 -15z"/>
<path d="M1805 1770 c15 -16 15 -22 5 -35 -16 -20 -30 -19 -30 1 0 10 6 14 15
10 8 -3 15 -1 15 4 0 6 -9 10 -20 10 -19 0 -26 -12 -20 -35 2 -5 2 -18 2 -29
-1 -17 0 -17 17 -2 20 18 41 21 41 6 0 -5 -7 -10 -15 -10 -8 0 -15 -4 -15 -10
0 -14 13 -12 36 4 15 12 17 17 7 27 -24 24 -13 32 12 9 14 -13 25 -27 25 -32
0 -5 -15 -22 -32 -39 -36 -33 -18 -29 20 5 l24 21 24 -30 c24 -30 31 -55 16
-55 -4 0 -13 9 -20 20 -7 12 -17 18 -22 15 -17 -10 -11 -22 13 -29 l22 -7 -22
-16 c-13 -8 -23 -20 -23 -25 0 -5 14 0 30 12 19 13 38 19 48 15 15 -5 14 -8
-7 -24 -17 -13 -22 -25 -18 -40 5 -19 -3 -26 -27 -22 -5 1 -6 -5 -2 -14 4 -11
2 -15 -6 -12 -7 2 -13 14 -12 26 0 11 -3 21 -8 21 -14 0 -9 -47 7 -60 13 -10
19 -8 39 13 26 28 64 43 76 30 15 -15 15 -46 1 -51 -10 -3 -12 0 -8 12 10 25
-9 19 -27 -9 -19 -29 -22 -57 -3 -31 10 14 22 17 46 14 28 -4 31 -2 25 16 -28
96 -200 346 -238 346 -5 0 -1 -9 9 -20z m180 -239 c3 -6 -3 -15 -14 -21 -21
-11 -37 2 -26 20 8 13 32 13 40 1z"/>
<path d="M211 1194 c-26 -32 -26 -46 -3 -72 27 -31 55 -35 85 -11 32 25 35 61
7 89 -28 28 -64 25 -89 -6z"/>
<path d="M2030 1200 c-28 -28 -25 -64 7 -89 60 -48 133 30 79 84 -30 30 -59
32 -86 5z"/>
<path d="M2009 944 c-5 -15 -8 -29 -5 -31 10 -10 76 -20 76 -12 0 5 -7 9 -15
9 -22 0 -18 18 5 25 25 8 26 25 1 18 -10 -3 -22 0 -25 6 -12 18 -26 12 -37
-15z m31 -9 c0 -8 -4 -15 -10 -15 -5 0 -10 7 -10 15 0 8 5 15 10 15 6 0 10 -7
10 -15z"/>
<path d="M245 950 c-7 -12 19 -12 55 0 22 7 21 8 -12 9 -20 1 -40 -3 -43 -9z"/>
<path d="M278 933 c-16 -2 -28 -9 -28 -14 0 -6 9 -7 23 -3 21 6 21 6 5 -13
-10 -11 -18 -24 -18 -30 0 -12 58 -4 67 10 4 6 -2 8 -15 5 -25 -7 -29 4 -7 22
16 13 20 31 8 29 -5 -1 -20 -4 -35 -6z"/>
<path d="M2027 874 c44 -19 36 -46 -10 -33 -39 11 -49 3 -13 -11 40 -15 54
-12 62 12 8 25 -17 48 -50 47 -16 0 -14 -4 11 -15z"/>
<path d="M303 858 c-36 -9 -44 -36 -18 -58 20 -17 65 2 65 27 0 32 -13 40 -47
31z m32 -29 c0 -17 -47 -19 -52 -2 -2 6 4 13 14 16 26 7 38 2 38 -14z"/>
<path d="M1965 800 c-8 -27 1 -37 40 -45 17 -4 25 -3 19 2 -7 4 -14 19 -15 33
-5 32 -35 38 -44 10z m35 -11 c0 -5 -7 -9 -15 -9 -9 0 -12 6 -9 15 6 15 24 11
24 -6z"/>
<path d="M315 775 c-23 -10 -25 -13 -10 -14 11 0 31 6 45 14 32 18 5 19 -35 0z"/>
<path d="M1970 741 l25 -21 -32 0 c-42 0 -42 -14 -1 -34 42 -21 48 -20 18 4
l-25 20 33 0 c42 0 41 12 -5 33 l-38 18 25 -20z"/>
<path d="M310 740 c-13 -8 -12 -10 3 -10 17 0 21 -10 17 -40 -1 -9 10 -4 29
14 17 16 28 33 25 38 -7 11 -55 10 -74 -2z"/>
<path d="M365 678 c-25 -17 -26 -19 -7 -15 25 6 26 4 11 -25 -6 -11 -8 -22 -6
-25 8 -7 67 26 67 38 0 8 -5 7 -15 -1 -19 -16 -34 -5 -17 12 13 13 16 38 5 37
-5 0 -21 -10 -38 -21z"/>
<path d="M1900 661 c0 -6 11 -23 25 -38 24 -27 24 -28 25 -5 0 12 7 25 16 29
13 5 13 7 2 14 -18 12 -68 11 -68 0z m40 -22 c0 -6 -4 -7 -10 -4 -5 3 -10 11
-10 16 0 6 5 7 10 4 6 -3 10 -11 10 -16z"/>
<path d="M1875 606 c5 -23 3 -27 -9 -23 -25 10 -19 -9 9 -27 29 -19 44 -21 27
-4 -18 18 -15 26 16 31 l27 4 -26 2 c-16 0 -31 10 -38 24 -11 21 -11 20 -6 -7z"/>
<path d="M445 565 c-16 -13 -25 -24 -20 -25 6 0 24 11 40 25 17 13 26 24 20
25 -5 0 -23 -11 -40 -25z"/>
<path d="M468 545 c-16 -13 -28 -27 -28 -31 0 -4 10 1 22 12 l21 19 -6 -32
c-4 -18 -3 -33 1 -33 13 0 67 49 55 50 -6 0 -15 -4 -18 -10 -12 -20 -21 -9
-17 20 5 36 5 36 -30 5z"/>
<path d="M1794 513 c3 -19 0 -23 -22 -24 l-27 0 25 -11 c14 -5 33 -14 43 -19
21 -11 21 -11 -4 37 -11 22 -18 29 -15 17z"/>
<path d="M531 497 c-6 -8 -6 -18 -1 -27 13 -20 12 -30 0 -30 -6 0 -15 10 -20
23 -10 22 -10 22 -7 -3 1 -18 9 -26 26 -28 22 -3 23 -1 18 27 -4 18 -2 31 3
31 6 0 10 -7 10 -16 0 -8 4 -13 10 -9 12 7 3 32 -15 39 -7 2 -18 -1 -24 -7z"/>
<path d="M593 458 c3 -9 -2 -23 -14 -34 -10 -9 -19 -22 -19 -27 0 -6 10 -1 23
10 12 11 28 22 35 24 10 3 7 10 -9 24 -18 16 -21 17 -16 3z"/>
<path d="M1723 463 c-7 -2 -13 -15 -13 -28 0 -19 -5 -23 -26 -22 -16 1 -31 -5
-38 -15 -16 -26 4 -53 40 -53 23 0 30 5 34 25 4 18 11 25 29 25 29 0 51 29 34
46 -6 6 -17 8 -23 4 -9 -6 -9 -10 1 -16 11 -6 11 -11 2 -20 -9 -9 -16 -9 -28
1 -20 17 -19 37 3 49 17 11 7 13 -15 4z m-19 -80 c13 -33 -26 -47 -43 -15 -7
13 -7 22 1 30 13 13 34 6 42 -15z"/>
<path d="M622 400 c-24 -31 -27 -40 -14 -40 9 0 46 60 40 66 -3 2 -14 -10 -26
-26z"/>
<path d="M665 400 c4 -6 0 -22 -9 -35 -24 -37 -18 -44 9 -10 18 22 27 27 36
18 8 -8 7 -16 -2 -30 -29 -47 25 -74 55 -28 24 37 18 44 -9 10 -18 -22 -27
-27 -36 -18 -8 8 -7 17 4 34 15 21 15 24 -11 46 -28 24 -48 31 -37 13z"/>
<path d="M1582 355 c9 -25 32 -65 38 -65 3 0 15 7 26 16 19 15 19 16 0 9 -14
-4 -27 2 -43 22 -14 15 -23 24 -21 18z"/>
<path d="M786 326 c3 -8 0 -24 -6 -36 -6 -12 -9 -24 -6 -27 3 -3 11 6 17 21 7
14 19 26 28 26 13 1 12 3 -3 15 -25 19 -37 19 -30 1z"/>
<path d="M1520 320 c-8 -14 -8 -26 0 -40 18 -33 70 -23 70 14 0 45 -50 63 -70
26z m54 -13 c8 -12 7 -20 -2 -29 -16 -16 -47 13 -38 37 7 19 25 16 40 -8z"/>
<path d="M830 281 c-14 -35 -9 -46 22 -54 21 -5 21 -5 6 7 -25 19 -22 35 5 29
19 -4 20 -3 5 7 -26 16 -22 33 5 25 17 -5 19 -4 7 4 -24 17 -37 13 -50 -18z"/>
<path d="M1487 289 c6 -21 5 -21 -21 -4 -31 20 -34 8 -10 -40 l14 -30 -5 28
c-6 28 -6 28 20 11 33 -21 38 -16 23 24 -14 36 -29 44 -21 11z"/>
<path d="M1413 277 c8 -22 -21 -36 -34 -16 -7 12 -9 12 -9 -1 0 -25 12 -60 20
-60 5 0 6 9 3 20 -7 26 21 27 37 3 9 -15 10 -11 5 17 -3 19 -10 39 -17 45 -8
7 -9 5 -5 -8z"/>
<path d="M954 245 c-8 -34 15 -60 45 -50 18 5 22 13 19 38 -2 26 -8 33 -30 35
-22 3 -29 -2 -34 -23z m51 5 c7 -12 -3 -50 -13 -50 -20 1 -34 19 -27 39 7 22
29 28 40 11z"/>
<path d="M1306 254 c-19 -19 -20 -25 -3 -48 15 -21 48 -18 55 4 4 13 3 13 -11
2 -20 -17 -37 -8 -37 19 0 13 7 19 21 19 11 0 17 5 14 10 -9 14 -21 12 -39 -6z"/>
<path d="M1040 236 c0 -13 -3 -31 -6 -40 -3 -9 -1 -16 5 -16 6 0 11 7 11 15 0
9 9 15 23 16 l22 0 -23 10 c-13 5 -20 14 -17 20 4 6 13 8 21 5 8 -3 14 -1 14
4 0 6 -11 10 -25 10 -20 0 -25 -5 -25 -24z"/>
<path d="M1185 250 c-22 -4 -32 -8 -23 -9 12 -1 18 -12 21 -38 l4 -38 1 38 c2
46 30 52 39 7 5 -26 10 -30 37 -29 30 2 30 2 4 6 -34 5 -36 20 -5 33 l22 9
-22 0 c-13 1 -23 5 -23 10 0 5 10 12 23 14 16 3 14 4 -8 4 -16 0 -48 -3 -70
-7z"/>
</g>
</svg>
