<?xml version="1.0" standalone="no"?>
<!DOCTYPE svg PUBLIC "-//W3C//DTD SVG 20010904//EN"
 "http://www.w3.org/TR/2001/REC-SVG-20010904/DTD/svg10.dtd">
<svg version="1.0" xmlns="http://www.w3.org/2000/svg"
 width="821.000000pt" height="275.000000pt" viewBox="0 0 821.000000 275.000000"
 preserveAspectRatio="xMidYMid meet">

<g transform="translate(0.000000,275.000000) scale(0.100000,-0.100000)"
fill="#000000" stroke="none">
<path d="M5530 2444 c-19 -2 -84 -9 -145 -14 -370 -36 -728 -132 -1010 -270
-188 -92 -281 -156 -401 -275 -87 -87 -107 -113 -148 -195 -86 -176 -86 -318
2 -494 38 -77 61 -107 146 -192 119 -118 211 -181 401 -274 413 -203 938 -301
1525 -287 444 11 827 82 1160 213 403 160 666 382 750 634 19 56 21 81 17 175
-7 170 -60 279 -207 425 -217 218 -590 391 -1040 484 -248 51 -413 67 -725 71
-159 2 -306 1 -325 -1z m133 -81 c-5 -12 -3 -14 8 -8 11 6 12 5 2 -6 -18 -18
-16 -74 2 -89 8 -7 15 -9 15 -4 0 4 7 -1 15 -12 8 -10 15 -33 15 -50 0 -17 6
-37 14 -43 8 -7 12 -21 8 -33 -3 -14 -1 -19 6 -14 17 10 15 0 -4 -18 -14 -15
-11 -16 30 -16 25 0 47 -4 50 -9 3 -4 13 -63 22 -129 17 -119 26 -139 38 -85
4 16 23 70 43 121 l37 92 77 0 78 0 -30 -72 c-17 -40 -36 -86 -44 -103 -7 -16
-39 -93 -69 -170 -31 -77 -60 -145 -64 -152 -8 -12 -131 -21 -149 -10 -5 4
-16 61 -23 127 -7 67 -16 118 -19 113 -4 -4 -29 -60 -55 -124 l-47 -116 -66
-6 c-37 -4 -69 -5 -71 -2 -4 4 38 112 124 320 5 11 -144 5 -162 -7 -6 -4 -17
-74 -24 -158 l-12 -150 -38 0 c-21 0 -52 -3 -69 -6 l-31 -6 0 46 0 46 -70 0
-69 0 -23 -39 -23 -40 -77 -3 c-43 -2 -78 0 -78 4 0 4 42 67 94 140 52 73 93
134 92 135 -1 2 -73 -7 -160 -19 l-158 -22 -19 -38 c-10 -20 -19 -42 -19 -48
0 -6 25 -10 61 -10 54 0 60 -2 54 -17 -4 -10 -16 -42 -27 -70 l-21 -53 -133 0
c-74 0 -134 3 -134 8 0 4 16 46 36 95 20 48 35 89 33 91 -2 3 -58 -9 -124 -25
-262 -64 -413 -44 -438 59 -16 66 65 165 217 267 264 176 614 273 1176 328 19
2 74 5 122 5 78 2 87 0 81 -15z m117 -273 c0 -5 -5 -10 -11 -10 -5 0 -7 5 -4
10 3 6 8 10 11 10 2 0 4 -4 4 -10z m692 -40 c47 -13 93 -59 102 -100 8 -42 -8
-108 -45 -185 -55 -111 -142 -180 -259 -204 -64 -13 -240 -19 -240 -9 0 7 132
341 181 456 l22 52 101 0 c55 0 118 -5 138 -10z m576 -247 l-3 -57 -139 -48
c-138 -48 -166 -52 -166 -24 0 9 29 24 80 41 44 15 80 29 80 32 0 3 -38 3 -85
0 l-85 -6 0 59 0 60 160 0 161 0 -3 -57z m-1317 -416 c116 -77 101 -262 -33
-404 -117 -123 -286 -144 -357 -45 -66 94 -37 239 73 359 95 104 236 144 317
90z m-502 2 c17 -6 36 -19 41 -29 38 -71 -36 -228 -120 -255 -24 -7 -24 -26
-6 -137 l12 -78 -68 -2 c-37 -1 -78 -2 -90 -2 -22 -1 -23 4 -28 79 l-5 80 -29
-76 -30 -76 -75 -6 c-42 -3 -79 -3 -82 1 -6 6 49 145 177 450 l26 62 123 0
c67 0 136 -5 154 -11z m861 8 c0 -13 -42 -229 -49 -257 -10 -34 -10 -35 7 -13
9 12 53 79 97 148 l80 125 88 0 89 0 -29 -38 c-15 -21 -100 -136 -188 -254
l-160 -216 -70 -5 c-38 -3 -73 -2 -78 2 -4 4 2 112 13 240 11 129 20 242 20
252 0 17 9 19 90 19 50 0 90 -1 90 -3z m680 -4 c0 -5 -12 -36 -26 -70 l-27
-63 -68 0 c-57 0 -70 -3 -79 -19 -16 -30 -14 -31 50 -31 33 0 60 -2 60 -4 0
-3 -12 -32 -26 -65 l-27 -61 -62 0 c-56 0 -63 -2 -73 -25 l-12 -25 71 0 c53 0
70 -3 66 -12 -3 -7 -15 -39 -28 -70 l-24 -58 -153 0 -152 0 15 38 c9 20 57
135 107 255 l92 217 148 0 c81 0 148 -3 148 -7z m447 -27 c21 -25 24 -37 20
-73 -8 -70 -46 -133 -103 -171 l-50 -34 13 -86 c7 -48 13 -93 13 -99 0 -10
-24 -13 -90 -13 l-89 0 -3 78 -3 77 -32 -75 -31 -75 -81 -3 -81 -3 20 52 c35
88 182 444 187 452 3 5 68 7 145 5 l140 -3 25 -29z m-2617 -86 c8 -15 8 -21
-2 -25 -7 -3 -44 -16 -83 -29 l-70 -25 87 0 86 -1 -2 -57 -3 -58 -159 0 -159
0 -3 49 c-2 27 2 54 8 60 9 9 252 99 282 105 4 0 12 -8 18 -19z"/>
<path d="M5293 1870 c-3 -11 -9 -20 -13 -20 -7 0 -60 -74 -60 -85 0 -3 16 -5
35 -5 38 0 41 6 47 88 4 45 -1 55 -9 22z"/>
<path d="M6340 1921 c0 -13 -8 -21 -22 -23 -18 -2 -32 -25 -69 -113 -26 -60
-48 -113 -48 -117 -2 -13 48 -9 86 7 53 22 72 42 104 110 34 71 38 129 10 145
-32 17 -61 12 -61 -9z"/>
<path d="M5549 1267 c-116 -62 -145 -257 -37 -257 81 0 158 92 158 189 0 75
-51 104 -121 68z"/>
<path d="M5041 1224 c-26 -57 -26 -54 3 -54 52 0 88 91 39 98 -17 3 -26 -6
-42 -44z"/>
<path d="M7007 1243 c-8 -16 -18 -38 -22 -51 -6 -21 -4 -23 22 -20 21 2 33 13
48 41 17 33 18 39 5 47 -25 16 -39 11 -53 -17z"/>
<path d="M870 2270 c-11 -7 3 -10 46 -10 33 0 83 -7 110 -15 66 -20 79 -18 24
4 -55 22 -160 35 -180 21z"/>
<path d="M786 2225 c-11 -8 -34 -18 -53 -21 -37 -7 -43 -20 -12 -29 20 -7 45
-52 34 -63 -3 -3 -5 -1 -5 5 0 18 -153 10 -183 -10 -15 -9 -27 -22 -27 -27 0
-30 -73 -56 -82 -29 -2 6 -12 10 -21 8 -30 -7 35 -76 76 -81 31 -3 32 -2 29
28 -3 25 2 36 24 53 l29 22 17 -21 c13 -16 17 -36 15 -73 -3 -50 -4 -52 -35
-55 -36 -4 -41 -16 -13 -32 34 -18 55 -11 91 29 44 48 128 77 198 67 50 -7
124 -40 149 -68 10 -12 30 -18 57 -18 23 0 48 -5 56 -10 10 -7 -21 -10 -100
-12 l-115 -2 115 -5 c63 -4 117 -3 120 1 3 3 24 1 47 -5 23 -6 45 -8 49 -5 12
12 -35 65 -73 83 -21 10 -73 50 -116 89 -43 39 -90 78 -105 86 -54 30 -122 84
-122 97 0 17 -20 16 -44 -2z m14 -35 c0 -5 -4 -10 -10 -10 -5 0 -10 5 -10 10
0 6 5 10 10 10 6 0 10 -4 10 -10z m101 -96 c14 -17 6 -17 -43 -3 -36 9 -45 19
-32 32 8 8 61 -12 75 -29z m-160 -43 c15 -18 20 -19 47 -9 40 15 158 -3 181
-27 15 -16 13 -17 -34 -10 -27 5 -83 9 -124 9 -72 1 -75 0 -119 -38 l-44 -40
6 30 c3 16 2 44 -4 63 -5 19 -7 38 -3 44 9 15 76 -1 94 -22z m-211 -47 c0 -11
-5 -14 -16 -10 -9 3 -18 6 -20 6 -3 0 -2 5 1 10 10 16 35 12 35 -6z m105 -94
c-3 -5 -14 -10 -23 -9 -14 0 -13 2 3 9 27 11 27 11 20 0z"/>
<path d="M1105 2221 c6 -6 26 -14 45 -17 24 -5 32 -3 25 4 -5 5 -26 13 -45 17
-25 5 -32 4 -25 -4z"/>
<path d="M580 2200 c19 -7 13 -8 -25 -7 -44 2 -50 -1 -53 -19 -2 -16 4 -23 24
-28 26 -7 40 -1 94 43 l25 21 -45 -1 c-38 -1 -41 -2 -20 -9z m-40 -25 c-7 -9
-15 -13 -17 -11 -7 7 7 26 19 26 6 0 6 -6 -2 -15z"/>
<path d="M7701 1905 c95 -106 167 -240 189 -352 17 -86 8 -223 -19 -303 -76
-222 -309 -445 -626 -600 -636 -309 -1554 -386 -2342 -194 -550 134 -976 394
-1132 694 -54 104 -74 179 -75 280 -1 145 45 275 144 405 29 39 43 61 31 51
-12 -11 -32 -21 -43 -23 -12 -2 -22 -4 -23 -6 -1 -1 -20 -27 -42 -57 -88 -121
-123 -227 -123 -371 0 -395 240 -704 725 -935 282 -134 597 -219 1000 -270
193 -25 701 -25 890 -1 411 54 717 139 1003 277 394 191 617 417 687 695 23
93 24 286 2 372 -31 118 -143 303 -184 303 -10 0 -37 19 -62 43 l-45 42 45
-50z"/>
<path d="M1468 1849 c-10 -5 -18 -18 -18 -28 0 -12 -13 -22 -40 -31 -35 -11
-57 -10 -172 9 -73 12 -177 23 -230 24 -94 2 -97 1 -126 -26 -16 -16 -32 -42
-36 -58 -7 -38 -31 -47 -58 -23 l-22 19 17 -27 c22 -36 5 -36 -22 -2 -12 15
-21 22 -21 16 0 -16 41 -52 59 -52 9 0 37 23 62 52 44 50 48 52 95 51 27 -1
99 -18 159 -38 150 -49 228 -61 280 -44 35 13 48 12 110 -4 78 -20 198 -19
342 4 74 12 88 11 138 -5 51 -16 61 -24 103 -84 70 -99 118 -148 170 -174 45
-22 55 -23 241 -20 224 3 222 3 340 -96 84 -70 135 -89 184 -68 67 28 58 51
-26 62 -38 5 -64 20 -134 73 -47 36 -99 76 -115 87 -25 19 -48 22 -186 28 -86
4 -175 12 -197 18 -41 10 -99 64 -213 196 -67 78 -112 104 -231 133 l-94 23
-63 -23 c-51 -18 -73 -21 -126 -15 -34 3 -78 13 -97 20 -39 16 -50 17 -73 3z
m-403 -63 c33 -8 96 -23 140 -34 44 -11 109 -23 144 -27 51 -6 61 -9 46 -17
-30 -18 -145 -1 -260 37 -60 20 -137 40 -170 44 l-60 8 50 2 c28 0 77 -6 110
-13z m911 -9 c1 -1 4 -17 7 -35 l7 -32 -39 6 c-22 3 -79 0 -128 -7 -104 -15
-213 -14 -303 4 -56 11 -65 15 -62 32 2 11 6 22 8 24 2 2 43 -2 91 -9 133 -20
268 -16 323 9 27 13 55 19 70 15 14 -3 25 -6 26 -7z m719 -323 c17 -8 48 -30
70 -49 l40 -34 -53 26 c-59 29 -116 33 -278 19 -113 -10 -182 1 -224 35 -14
12 -20 18 -14 15 6 -3 31 -2 55 3 66 13 368 2 404 -15z m333 -186 c-6 -16 -42
-22 -77 -12 -26 7 -26 8 9 14 56 12 72 11 68 -2z"/>
<path d="M2426 1687 c26 -43 68 -87 81 -83 8 3 12 2 9 -3 -8 -12 7 -17 96 -31
55 -9 81 -9 94 -1 11 5 13 11 7 11 -7 0 -59 21 -115 46 -135 61 -181 77 -172
61z"/>
<path d="M2820 1526 c0 -10 65 -66 77 -66 6 0 15 -4 18 -10 4 -6 -1 -7 -12 -4
-34 11 30 -34 96 -68 58 -29 74 -33 146 -33 74 0 85 3 118 28 36 27 63 64 54
73 -3 3 -32 -9 -65 -26 -87 -44 -148 -42 -250 8 -42 21 -95 50 -117 63 -60 38
-65 41 -65 35z m170 -122 c0 -2 -9 0 -20 6 -11 6 -20 13 -20 16 0 2 9 0 20 -6
11 -6 20 -13 20 -16z m270 -20 c0 -3 -16 -12 -35 -20 -38 -15 -119 -18 -150
-4 -13 6 0 8 40 5 38 -3 73 0 95 9 41 16 50 18 50 10z"/>
<path d="M526 1003 c9 -78 14 -79 14 -5 0 38 -4 62 -11 62 -7 0 -8 -19 -3 -57z"/>
<path d="M2936 1027 c-4 -20 -5 -52 -2 -70 4 -17 8 -61 9 -97 l2 -65 55 0 55
0 3 43 3 42 55 0 c56 0 99 -16 175 -67 31 -20 47 -24 100 -21 l64 3 -50 26
c-28 15 -61 36 -74 46 l-24 20 40 6 c22 4 45 12 51 19 8 10 -35 12 -218 10
l-229 -3 -3 73 c-3 66 -4 70 -12 35z"/>
<path d="M975 978 l57 -68 -54 0 c-30 0 -60 6 -68 13 -8 6 -4 0 9 -15 l23 -27
-53 -4 c-30 -2 -6 -3 52 -1 99 2 108 1 127 -19 l21 -22 -51 2 c-27 0 -55 6
-61 12 -18 18 -301 15 -316 -3 -7 -8 -21 -13 -31 -11 -10 2 -28 -7 -41 -21
l-22 -24 29 0 c21 0 40 10 59 30 l29 30 142 0 143 0 23 -31 c23 -29 27 -30 89
-27 l64 3 -47 46 c-27 25 -48 50 -48 55 0 5 -30 41 -66 79 l-66 70 57 -67z"/>
<path d="M2152 1010 c0 -14 2 -19 5 -12 2 6 2 18 0 25 -3 6 -5 1 -5 -13z"/>
<path d="M3284 1017 c14 -10 17 -23 14 -50 -3 -29 -1 -34 9 -25 20 16 16 66
-6 78 -28 14 -38 12 -17 -3z"/>
<path d="M762 957 c-44 -44 -65 -58 -70 -49 -6 9 -14 7 -30 -10 l-21 -23 34 0
c18 0 31 3 28 8 -2 4 3 7 11 7 9 0 16 4 16 9 0 5 23 32 51 61 28 28 49 53 47
56 -2 2 -32 -25 -66 -59z"/>
<path d="M2560 1005 c8 -11 32 -37 52 -59 21 -21 38 -42 38 -47 0 -5 -46 -9
-102 -9 -99 0 -101 0 -84 19 17 19 16 19 -19 11 -21 -5 -44 -19 -53 -32 -9
-13 -31 -36 -49 -52 -40 -36 -41 -46 -5 -46 20 0 35 9 50 30 l23 30 142 0 143
0 29 -30 c26 -27 35 -30 88 -30 l59 0 -61 68 c-60 67 -60 67 -106 64 -45 -4
-49 -2 -103 49 -31 30 -49 45 -42 34z"/>
<path d="M1280 979 c-6 -11 -10 -27 -8 -35 2 -8 8 1 14 20 12 40 10 46 -6 15z"/>
<path d="M510 912 c0 -4 -20 -6 -44 -4 -37 3 -44 1 -49 -17 -4 -17 -2 -19 11
-13 16 8 70 7 78 -1 2 -2 -3 -12 -10 -23 -16 -21 -14 -21 -268 -23 -131 -1
-138 -2 -138 -21 0 -19 7 -20 129 -20 154 0 223 12 273 47 29 20 38 33 38 54
0 16 -4 29 -10 29 -5 0 -10 -3 -10 -8z"/>
<path d="M1170 895 c0 -30 25 -60 67 -81 32 -15 69 -19 230 -22 l192 -4 7 26
c3 14 3 42 0 61 -7 34 -8 35 -56 35 l-50 0 0 -42 0 -41 -172 7 c-157 6 -198
13 -198 36 0 7 63 4 87 -5 8 -3 10 3 4 18 -7 18 -18 23 -60 27 -47 5 -51 4
-51 -15z m480 -35 c0 -17 -7 -20 -40 -20 -54 0 -56 27 -2 33 20 2 38 4 40 5 1
1 2 -7 2 -18z"/>
<path d="M1770 900 c0 -40 28 -77 72 -95 33 -13 74 -17 173 -18 112 -1 137 2
178 21 26 11 47 26 47 32 0 6 -4 8 -10 5 -6 -4 -7 1 -3 11 4 11 8 13 11 6 7
-21 22 -2 22 29 0 28 -1 29 -50 29 -46 0 -50 -2 -50 -24 0 -13 -9 -34 -19 -47
-18 -22 -26 -24 -119 -24 -111 0 -135 11 -147 66 -6 27 -10 29 -56 29 -43 0
-49 -3 -49 -20z m107 -45 c2 -6 -15 -10 -39 -9 -23 1 -44 6 -45 11 -2 6 14 10
38 9 23 -1 44 -5 46 -11z m327 4 c3 -3 -4 -5 -14 -6 -11 -1 -20 2 -20 7 0 8
25 8 34 -1z"/>
<path d="M763 873 c9 -2 25 -2 35 0 9 3 1 5 -18 5 -19 0 -27 -2 -17 -5z"/>
</g>
</svg>
