<?xml version="1.0" standalone="no"?>
<!DOCTYPE svg PUBLIC "-//W3C//DTD SVG 20010904//EN"
 "http://www.w3.org/TR/2001/REC-SVG-20010904/DTD/svg10.dtd">
<svg version="1.0" xmlns="http://www.w3.org/2000/svg"
 width="754.000000pt" height="760.000000pt" viewBox="0 0 754.000000 760.000000"
 preserveAspectRatio="xMidYMid meet">

<g transform="translate(0.000000,760.000000) scale(0.100000,-0.100000)"
fill="#000000" stroke="none">
<path d="M0 3800 l0 -3800 3770 0 3770 0 0 3800 0 3800 -3770 0 -3770 0 0
-3800z m5938 1663 l2 -623 -430 0 -429 0 0 223 c-1 122 -1 228 -1 235 0 9 -96
12 -445 12 l-445 0 0 -1490 0 -1490 240 0 240 0 -2 -427 -3 -428 -902 -3 -903
-2 0 430 0 430 240 0 240 0 0 1490 0 1490 -450 0 c-353 0 -450 -3 -450 -12 -1
-7 0 -115 0 -240 l1 -228 -431 0 -430 0 0 623 c0 343 3 627 7 630 3 4 983 6
2177 5 l2171 -3 3 -622z m-3508 -1078 l0 -195 -45 0 c-25 0 -45 -4 -45 -10 0
-10 41 -105 310 -725 83 -192 163 -378 177 -412 l27 -63 108 0 109 0 -1 -195
-2 -195 -384 0 -384 0 0 195 0 195 55 0 c30 0 55 4 55 8 0 5 -17 49 -39 98
l-38 89 -315 3 -314 2 -41 -97 -41 -98 54 -3 54 -3 0 -194 0 -195 -385 0 -386
0 1 195 2 194 110 3 111 3 32 75 c142 324 485 1120 485 1125 0 3 -25 5 -55 5
l-55 0 0 195 0 195 420 0 420 0 0 -195z m2753 13 c46 -95 139 -289 207 -430
68 -142 126 -256 128 -254 2 3 95 195 207 428 l204 423 323 0 323 0 2 -192 2
-193 -80 0 -79 0 0 -600 0 -600 79 0 80 0 -2 -192 -2 -193 -352 -3 -353 -2 0
195 0 195 75 0 75 0 -1 423 0 422 -77 -155 c-43 -85 -156 -315 -251 -510
l-174 -355 -168 345 c-93 190 -204 417 -248 505 l-80 160 0 -417 -1 -418 80 0
80 0 0 -195 0 -195 -355 0 -355 0 0 195 0 195 75 0 75 0 0 600 0 599 -72 3
-73 3 -3 193 -2 192 315 0 315 0 83 -172z m-231 -2887 c51 -57 49 -133 -3
-182 -105 -98 -270 24 -206 151 38 75 154 93 209 31z"/>
<path d="M1946 3739 c-38 -88 -66 -162 -64 -165 3 -2 67 -3 141 -2 l137 3 -51
115 c-27 63 -57 133 -66 155 -9 22 -19 43 -22 47 -3 3 -37 -65 -75 -153z"/>
<path d="M4784 1496 c-38 -38 -44 -77 -19 -126 17 -33 61 -60 97 -60 38 0 85
35 98 74 24 74 -27 146 -102 146 -32 0 -47 -7 -74 -34z m124 -18 c15 -13 16
-44 2 -53 -6 -4 -8 -11 -4 -16 3 -5 7 -21 10 -34 3 -18 0 -25 -11 -25 -9 0
-15 9 -15 24 0 16 -7 26 -22 29 -29 8 -38 1 -38 -29 0 -16 -5 -24 -12 -21 -13
4 -21 122 -11 140 6 10 83 -2 101 -15z"/>
<path d="M4830 1450 c0 -16 7 -20 30 -20 23 0 30 4 30 20 0 16 -7 20 -30 20
-23 0 -30 -4 -30 -20z"/>
</g>
</svg>
